<svg width="40" height="17" viewBox="0 0 40 17" fill="none" xmlns="http://www.w3.org/2000/svg">
<path d="M17.7247 2.57161L17.7229 2.57462L17.4609 3.01852C17.1729 3.50775 17.0289 3.75143 16.8049 3.91199C16.5809 4.07255 16.3009 4.13299 15.7409 4.252L15.2329 4.36155C13.2648 4.7809 12.2808 4.99246 12.0468 5.7027C11.8129 6.4127 12.4844 7.1548 13.8235 8.63474L13.8248 8.63622L14.1728 9.01967C14.5529 9.43901 14.7429 9.65057 14.8289 9.91125C14.9149 10.1719 14.8869 10.4534 14.8289 11.0144L14.7769 11.5263C14.5729 13.5021 14.4729 14.49 15.0849 14.9302C15.6969 15.3703 16.6209 14.9698 18.4609 14.167L18.9389 13.9592C19.4609 13.7326 19.7229 13.6192 20.001 13.6192C20.279 13.6192 20.541 13.7326 21.063 13.9592L21.541 14.167L21.5523 14.172C23.3868 14.9696 24.3063 15.3694 24.917 14.9302C25.5291 14.49 25.4291 13.5021 25.2251 11.5244L25.173 11.0144C25.115 10.4534 25.087 10.1719 25.173 9.91125C25.2586 9.65204 25.4469 9.44327 25.8227 9.02677L25.8291 9.01967L26.1771 8.63622C27.5191 7.15529 28.1891 6.41294 27.9551 5.7027C27.7211 4.99246 26.7371 4.7809 24.769 4.36155L24.261 4.252C23.701 4.13299 23.421 4.07255 23.197 3.91199C22.9738 3.75197 22.83 3.50941 22.5419 3.02349L22.539 3.01852L22.279 2.57462L22.2772 2.57162C21.2644 0.856577 20.7585 0 20.001 0C19.2434 0 18.7375 0.856575 17.7247 2.57161Z" fill="white"/>
<path d="M34.867 10.7232L34.8612 10.7329L34.7312 10.9539L34.7275 10.9602C34.586 11.1997 34.5143 11.3211 34.4032 11.4016C34.2912 11.481 34.1512 11.5112 33.8712 11.5716L33.6172 11.6245C32.6332 11.8361 32.1432 11.9419 32.0252 12.297C31.9074 12.6513 32.2416 13.0206 32.9086 13.7577L32.9132 13.7628L33.0872 13.9536L33.1059 13.9744C33.2836 14.1721 33.3746 14.2734 33.4152 14.4012C33.4576 14.525 33.4443 14.6593 33.4182 14.9224L33.4152 14.9528L33.3892 15.2078C33.2872 16.1957 33.2372 16.6906 33.5432 16.9098C33.8512 17.1289 34.3112 16.9286 35.2312 16.5282L35.4692 16.4243L35.4748 16.4219C35.7331 16.3102 35.8622 16.2543 36.0013 16.2543C36.1393 16.2543 36.2713 16.311 36.5313 16.4243L36.7713 16.5282L36.7747 16.5297C37.6944 16.9291 38.1537 17.1286 38.4593 16.9098C38.7635 16.6919 38.7139 16.2014 38.615 15.2248L38.6133 15.2078L38.5873 14.9528L38.5872 14.9514C38.5592 14.6709 38.5454 14.5314 38.5873 14.4012C38.6287 14.2726 38.7228 14.1679 38.9079 13.9618L38.9153 13.9536L39.0893 13.7628L39.0926 13.7592C39.7604 13.0211 40.0931 12.6534 39.9773 12.297C39.862 11.942 39.3749 11.8373 38.4019 11.6281L38.3853 11.6245L38.1313 11.5716L38.1052 11.566C37.8425 11.5093 37.7077 11.4803 37.5993 11.4016C37.4873 11.3204 37.4153 11.1995 37.2713 10.9539L37.1413 10.7329L37.1355 10.7232C36.6314 9.87025 36.3798 9.44468 36.0013 9.44468C35.6227 9.44468 35.3711 9.87025 34.867 10.7232Z" fill="white"/>
<path d="M2.87811 10.7035L2.86064 10.7329L2.73063 10.9539L2.72693 10.9602C2.58539 11.1997 2.51366 11.3211 2.40263 11.4016C2.29063 11.481 2.15062 11.5112 1.87062 11.5716L1.61661 11.6245L1.59998 11.6281C0.627047 11.8373 0.139919 11.942 0.0225836 12.297C-0.0931538 12.6513 0.241057 13.0206 0.90802 13.7577L0.9126 13.7628L1.0866 13.9536L1.10531 13.9744C1.28295 14.1721 1.37401 14.2734 1.41461 14.4012C1.45861 14.5297 1.44261 14.6695 1.41461 14.9528L1.38861 15.2078C1.28661 16.1957 1.23661 16.6906 1.54261 16.9098C1.85062 17.1289 2.31063 16.9286 3.23064 16.5282L3.46865 16.4243L3.4742 16.4219C3.73249 16.3102 3.86165 16.2543 4.00066 16.2543C4.13866 16.2543 4.27066 16.311 4.53067 16.4243L4.77067 16.5282C5.69069 16.9286 6.1527 17.1289 6.4587 16.9098C6.76295 16.6919 6.71329 16.2014 6.61443 15.2248L6.61271 15.2078L6.58671 14.9528L6.58656 14.9514C6.55866 14.6709 6.54478 14.5314 6.58671 14.4012C6.62816 14.2726 6.72221 14.1679 6.90731 13.9618L6.91471 13.9536L7.08871 13.7628L7.09329 13.7577C7.76026 13.0206 8.09447 12.6513 7.97873 12.297C7.86139 11.942 7.37427 11.8373 6.40133 11.6281L6.3847 11.6245L6.1307 11.5716C5.85069 11.5112 5.71069 11.4828 5.59869 11.4016C5.48668 11.3204 5.41468 11.1995 5.27068 10.9539L5.14068 10.7329L5.13494 10.7232C4.63077 9.87024 4.37923 9.44468 4.00066 9.44468C3.62501 9.44468 3.37641 9.86368 2.87811 10.7035Z" fill="white"/>
</svg>
